<?xml version="1.0" encoding="UTF-8" standalone="no"?>
<svg
   xmlns:dc="http://purl.org/dc/elements/1.1/"
   xmlns:cc="http://creativecommons.org/ns#"
   xmlns:rdf="http://www.w3.org/1999/02/22-rdf-syntax-ns#"
   xmlns:svg="http://www.w3.org/2000/svg"
   xmlns="http://www.w3.org/2000/svg"
   xmlns:sodipodi="http://sodipodi.sourceforge.net/DTD/sodipodi-0.dtd"
   xmlns:inkscape="http://www.inkscape.org/namespaces/inkscape"
   width="32"
   height="32"
   version="1.1"
   style="enable-background:new"
   id="svg8"
   sodipodi:docname="titlebutton-maximize-active@2.svg"
   inkscape:version="1.0 (4035a4fb49, 2020-05-01)">
  <metadata
     id="metadata14">
    <rdf:RDF>
      <cc:Work
         rdf:about="">
        <dc:format>image/svg+xml</dc:format>
        <dc:type
           rdf:resource="http://purl.org/dc/dcmitype/StillImage" />
        <dc:title />
      </cc:Work>
    </rdf:RDF>
  </metadata>
  <defs
     id="defs12" />
  <sodipodi:namedview
     pagecolor="#ffffff"
     bordercolor="#666666"
     borderopacity="1"
     objecttolerance="10"
     gridtolerance="10"
     guidetolerance="10"
     inkscape:pageopacity="0"
     inkscape:pageshadow="2"
     inkscape:window-width="1920"
     inkscape:window-height="1017"
     id="namedview10"
     showgrid="false"
     inkscape:zoom="9.8333333"
     inkscape:cx="-15.65474"
     inkscape:cy="11.288136"
     inkscape:window-x="0"
     inkscape:window-y="0"
     inkscape:window-maximized="1"
     inkscape:current-layer="svg8"
     inkscape:document-rotation="0" />
  <g
     id="g839">
    <path
       style="fill:#3d8173;fill-opacity:1;fill-rule:evenodd;stroke:none;stroke-width:2.28572"
       d="M 16.00014,32 C 24.836548,32 32,24.836572 32,16 32,7.163428 24.836548,0 16.00014,0 7.1634716,0 0,7.163428 0,16 0,24.836572 7.1634716,32 16.00014,32"
       id="path2"
       inkscape:connector-curvature="0" />
    <path
       style="fill:#22917b;fill-opacity:1;fill-rule:evenodd;stroke:none;stroke-width:2.22226"
       d="m 16.00014,30.857142 c 8.205214,0 14.856988,-6.287854 14.856988,-14.043804 0,-7.756166 -6.651774,-14.04359 -14.856988,-14.04359 -8.2055162,0 -14.8572967,6.287422 -14.8572967,14.04359 0,7.75595 6.6517805,14.043804 14.8572967,14.043804"
       id="path4"
       inkscape:connector-curvature="0" />
    <path
       style="opacity:0.5;fill:#000000;fill-opacity:1;stroke:none;stroke-width:4.66666;stroke-linecap:round;stroke-linejoin:round;stroke-miterlimit:4;stroke-dasharray:none;stroke-opacity:1;enable-background:new"
       d="M 12.32948,8.976 23.03,19.676432 V 11.309334 C 23.03,10.339834 21.666166,8.976 20.696666,8.976 Z m -3.2994792,3.299566 v 8.367098 c 0,0.9695 1.3638322,2.333336 2.3333322,2.333336 h 8.367189 z"
       id="path6"
       inkscape:connector-curvature="0" />
  </g>
</svg>
