<?xml version="1.0" encoding="UTF-8" standalone="no"?>
<svg
   xmlns:dc="http://purl.org/dc/elements/1.1/"
   xmlns:cc="http://creativecommons.org/ns#"
   xmlns:rdf="http://www.w3.org/1999/02/22-rdf-syntax-ns#"
   xmlns:svg="http://www.w3.org/2000/svg"
   xmlns="http://www.w3.org/2000/svg"
   xmlns:sodipodi="http://sodipodi.sourceforge.net/DTD/sodipodi-0.dtd"
   xmlns:inkscape="http://www.inkscape.org/namespaces/inkscape"
   width="56"
   height="40"
   viewBox="0 0 14.816667 10.583333"
   version="1.1"
   id="svg1663"
   inkscape:version="1.0 (4035a4fb49, 2020-05-01)"
   sodipodi:docname="titlebutton-restore-hover@2.svg">
  <defs
     id="defs1657" />
  <sodipodi:namedview
     id="base"
     pagecolor="#ffffff"
     bordercolor="#666666"
     borderopacity="1.0"
     inkscape:pageopacity="0.0"
     inkscape:pageshadow="2"
     inkscape:zoom="20.825"
     inkscape:cx="27"
     inkscape:cy="20"
     inkscape:document-units="mm"
     inkscape:current-layer="g3841"
     showgrid="true"
     units="px"
     inkscape:window-width="1920"
     inkscape:window-height="1014"
     inkscape:window-x="0"
     inkscape:window-y="0"
     inkscape:window-maximized="1"
     inkscape:measure-start="1,16"
     inkscape:measure-end="1.02857,15.9429"
     inkscape:document-rotation="0">
    <inkscape:grid
       type="xygrid"
       id="grid815" />
  </sodipodi:namedview>
  <metadata
     id="metadata1660">
    <rdf:RDF>
      <cc:Work
         rdf:about="">
        <dc:format>image/svg+xml</dc:format>
        <dc:type
           rdf:resource="http://purl.org/dc/dcmitype/StillImage" />
        <dc:title></dc:title>
      </cc:Work>
    </rdf:RDF>
  </metadata>
  <g
     inkscape:label="Layer 1"
     inkscape:groupmode="layer"
     id="layer1"
     transform="translate(0,-292.76669)">
    <g
       id="g3837"
       transform="matrix(0.71264185,-0.70148238,0.70143814,0.7126868,-206.23386,86.208687)">
      <g
         id="g3841">
        <g
           transform="matrix(2,0,0,2,-2.0926327,-291.88971)"
           id="g839">
          <rect
             ry="1.3654917"
             transform="rotate(44.546057)"
             y="206.558"
             x="206.24687"
             height="5.2920046"
             width="7.408802"
             id="rect836"
             style="opacity:1;fill:#ececec;stroke:#781616;stroke-width:0;stroke-miterlimit:4;stroke-dasharray:none" />
          <path
             style="font-weight:400;font-family:sans-serif;overflow:visible;opacity:1;fill:#808080;fill-opacity:1;stroke:#808080;stroke-width:0.0952784;stroke-miterlimit:4;stroke-dasharray:none;stroke-opacity:1"
             inkscape:connector-curvature="0"
             id="path2"
             overflow="visible"
             d="m 2.3395812,295.2879 c -0.2279566,-0.21923 -0.3852336,-0.38949 -0.5914014,-0.44988 a 0.47260136,0.46020347 44.546072 0 0 -0.3213284,0.0265 c -0.1046019,0.0472 -0.205157,0.1278 -0.3179742,0.24242 l -0.34343025,0.34892 c -0.1129887,0.11479 -0.19170281,0.21627 -0.23735307,0.32177 -0.046001,0.10552 -0.0530637,0.21911 -0.0214171,0.32171 0.0634727,0.20536 0.23637566,0.35974 0.45918074,0.58421 l 0.36046578,0.35479 c 0.2279564,0.21922 0.3852324,0.38947 0.5914006,0.44986 a 0.47260136,0.46020347 44.546072 0 0 0.3215079,-0.0263 c 0.1044228,-0.0472 0.2049777,-0.12798 0.3177947,-0.2426 l 0.3434305,-0.34891 c 0.1129889,-0.11479 0.1917029,-0.21627 0.2373533,-0.32178 a 0.47260136,0.46020347 44.546072 0 0 0.021415,-0.32171 c -0.063472,-0.20536 -0.2363753,-0.35975 -0.45918,-0.5842 l -0.359749,-0.35408 z m -0.1706409,0.17549 0.3583166,0.35271 c 0.2229838,0.22463 0.3635994,0.37848 0.3944844,0.47826 0.015792,0.0498 0.015551,0.0881 -0.011716,0.15058 -0.027266,0.0625 -0.087071,0.14581 -0.1887255,0.2491 l -0.3434306,0.3489 c -0.1016554,0.10329 -0.1840327,0.1644 -0.2460571,0.19264 -0.062207,0.028 -0.09989,0.0294 -0.1500234,0.0146 -0.1000788,-0.0292 -0.2565073,-0.16764 -0.4848215,-0.3872 l -0.358316,-0.3527 c -0.22298422,-0.22463 -0.36413694,-0.37902 -0.39484281,-0.47862 -0.015617,-0.0498 -0.0150115,-0.0875 0.0120738,-0.15022 0.0272668,-0.0625 0.08707,-0.14584 0.18872541,-0.24912 l 0.3434305,-0.34891 c 0.1016553,-0.10329 0.1840322,-0.1644 0.2460564,-0.19265 0.062205,-0.028 0.099898,-0.029 0.1500235,-0.0146 0.1000789,0.0292 0.2565076,0.16764 0.4848211,0.3872 z" />
          <path
             style="font-weight:400;font-family:sans-serif;overflow:visible;fill:#000000;stroke:#000000;stroke-width:0.158755;stroke-miterlimit:4;stroke-dasharray:none;stroke-opacity:1"
             inkscape:connector-curvature="0"
             id="path4"
             overflow="visible"
             d="M 3.709195,294.91682 C 3.4729855,294.6898 3.3102786,294.51321 3.0947274,294.45268 a 0.48956349,0.48953261 44.544981 0 0 -0.3376306,0.0323 c -0.1104439,0.051 -0.2171097,0.13705 -0.3371165,0.25897 l -0.1826588,0.18558 0.185588,0.18267 0.1826588,-0.18558 c 0.108134,-0.10986 0.1954467,-0.17518 0.2609401,-0.20571 0.065679,-0.0303 0.1052551,-0.0319 0.1576663,-0.0173 0.1046367,0.0292 0.2668943,0.17245 0.5034751,0.39983 l 0.9279399,0.91335 c 0.2309156,0.23277 0.3763627,0.39237 0.4073909,0.49671 0.015882,0.0522 0.015097,0.0923 -0.014392,0.15829 -0.029488,0.066 -0.093418,0.1543 -0.201552,0.26417 l -0.730635,0.7423 c -0.1081342,0.10986 -0.1954476,0.17518 -0.2609402,0.20571 -0.065678,0.0303 -0.1052551,0.0319 -0.1576663,0.0173 -0.1051906,-0.0294 -0.2672655,-0.17282 -0.504403,-0.40075 l -0.1846602,-0.18176 -0.1826588,0.18558 0.1867017,0.18377 c 0.2362101,0.22701 0.3989162,0.4036 0.6144676,0.46414 a 0.48956349,0.48953261 44.544981 0 0 0.3376307,-0.0323 c 0.1104438,-0.051 0.2171097,-0.13705 0.3371165,-0.25898 l 0.7306349,-0.7423 c 0.1201895,-0.12211 0.2042201,-0.22976 0.2536022,-0.34118 a 0.48956349,0.48953261 44.544981 0 0 0.026771,-0.33828 c -0.063576,-0.21457 -0.2429049,-0.37427 -0.4736349,-0.60686 l -0.9294252,-0.9148 z" />
        </g>
      </g>
    </g>
  </g>
</svg>
