<?xml version="1.0" encoding="UTF-8" standalone="no"?>
<svg
   xmlns:dc="http://purl.org/dc/elements/1.1/"
   xmlns:cc="http://creativecommons.org/ns#"
   xmlns:rdf="http://www.w3.org/1999/02/22-rdf-syntax-ns#"
   xmlns:svg="http://www.w3.org/2000/svg"
   xmlns="http://www.w3.org/2000/svg"
   xmlns:sodipodi="http://sodipodi.sourceforge.net/DTD/sodipodi-0.dtd"
   xmlns:inkscape="http://www.inkscape.org/namespaces/inkscape"
   width="32"
   height="32"
   viewBox="0 0 8.4666666 8.4666664"
   version="1.1"
   id="svg1663"
   inkscape:version="1.0 (4035a4fb49, 2020-05-01)"
   sodipodi:docname="titlebutton-maximize@2.svg">
  <defs
     id="defs1657" />
  <sodipodi:namedview
     id="base"
     pagecolor="#ffffff"
     bordercolor="#666666"
     borderopacity="1.0"
     inkscape:pageopacity="0.0"
     inkscape:pageshadow="2"
     inkscape:zoom="42.777778"
     inkscape:cx="-1.3974733"
     inkscape:cy="7.8662339"
     inkscape:document-units="mm"
     inkscape:current-layer="g3841"
     showgrid="true"
     units="px"
     inkscape:window-width="1920"
     inkscape:window-height="1014"
     inkscape:window-x="0"
     inkscape:window-y="0"
     inkscape:window-maximized="1"
     inkscape:measure-start="1,16"
     inkscape:measure-end="1.02857,15.9429"
     inkscape:document-rotation="0">
    <inkscape:grid
       type="xygrid"
       id="grid815" />
  </sodipodi:namedview>
  <metadata
     id="metadata1660">
    <rdf:RDF>
      <cc:Work
         rdf:about="">
        <dc:format>image/svg+xml</dc:format>
        <dc:type
           rdf:resource="http://purl.org/dc/dcmitype/StillImage" />
        <dc:title></dc:title>
      </cc:Work>
    </rdf:RDF>
  </metadata>
  <g
     inkscape:label="Layer 1"
     inkscape:groupmode="layer"
     id="layer1"
     transform="translate(0,-292.76669)">
    <g
       id="g3837"
       transform="matrix(0.71264185,-0.70148238,0.70143814,0.7126868,-206.23386,86.208687)">
      <g
         id="g3841">
        <path
           style="font-weight:400;font-family:sans-serif;overflow:visible;opacity:1;fill:#808080;fill-opacity:1;stroke:#808080;stroke-width:0.190557;stroke-miterlimit:4;stroke-dasharray:none;stroke-opacity:1"
           inkscape:connector-curvature="0"
           id="path2"
           overflow="visible"
           d="M 1.0728299,295.92426 C 0.61691661,295.4858 0.30236261,295.14528 -0.10997309,295.0245 a 0.94520272,0.92040694 44.546069 0 0 -0.64265656,0.053 c -0.20920384,0.0944 -0.41031415,0.2556 -0.63594865,0.48484 l -0.6868605,0.69784 c -0.2259773,0.22958 -0.3834055,0.43254 -0.4747061,0.64354 -0.092002,0.21104 -0.1061274,0.43822 -0.042834,0.64342 0.126945,0.41072 0.472751,0.71948 0.9183612,1.16842 l 0.72093161,0.70958 c 0.45591236,0.43844 0.7704662,0.77894 1.1828011,0.89972 a 0.94520272,0.92040694 44.546069 0 0 0.6430162,-0.0526 c 0.20884549,-0.0944 0.40995549,-0.25596 0.63558929,-0.4852 l 0.686861,-0.69782 c 0.2259778,-0.22958 0.3834058,-0.43254 0.4747066,-0.64356 a 0.94520272,0.92040694 44.546069 0 0 0.04283,-0.64342 c -0.126944,-0.41072 -0.4727506,-0.7195 -0.91836,-1.1684 l -0.719498,-0.70816 z m -0.34128209,0.35098 0.71663329,0.70542 c 0.4459674,0.44926 0.7271988,0.75696 0.7889688,0.95652 0.031584,0.0996 0.031102,0.1762 -0.023432,0.30116 -0.054532,0.125 -0.174142,0.29162 -0.377451,0.4982 l -0.6868612,0.6978 c -0.20331103,0.20658 -0.36806569,0.3288 -0.49211429,0.38528 -0.124414,0.056 -0.19978,0.0588 -0.3000468,0.0292 -0.2001576,-0.0584 -0.5130149,-0.33528 -0.96964302,-0.7744 l -0.71663229,-0.7054 c -0.4459679,-0.44926 -0.7282735,-0.75804 -0.7896854,-0.95724 -0.031234,-0.0996 -0.030023,-0.175 0.024148,-0.30044 0.054533,-0.125 0.17414,-0.29168 0.3774508,-0.49824 l 0.6868611,-0.69782 c 0.20331087,-0.20658 0.36806459,-0.3288 0.49211285,-0.3853 0.12441,-0.056 0.199796,-0.058 0.30004706,-0.0292 0.2001577,0.0584 0.5130151,0.33528 0.9696421,0.7744 z" />
        <path
           style="font-weight:400;font-family:sans-serif;overflow:visible;fill:#000000;stroke:#000000;stroke-width:0.31751;stroke-miterlimit:4;stroke-dasharray:none;stroke-opacity:1"
           inkscape:connector-curvature="0"
           id="path4"
           overflow="visible"
           d="m 3.8653897,295.08514 c -0.472419,-0.45404 -0.7978328,-0.80722 -1.2289352,-0.92828 a 0.97912696,0.97906522 44.550957 0 0 -0.6752612,0.0646 c -0.2208878,0.102 -0.4342194,0.2741 -0.674233,0.51794 l -0.36531763,0.37116 0.37117603,0.36534 0.3653176,-0.37116 c 0.216268,-0.21972 0.3908934,-0.35036 0.5218802,-0.41142 0.131358,-0.0606 0.2105102,-0.0638 0.3153326,-0.0346 0.2092734,0.0584 0.5337886,0.3449 1.0069502,0.79966 l 1.8558798,1.8267 c 0.4618308,0.46554 0.7527252,0.78474 0.8147816,0.99342 0.031764,0.1044 0.030194,0.1846 -0.028784,0.31658 -0.058978,0.132 -0.186836,0.3086 -0.403104,0.52834 l -1.4612702,1.4846 c -0.216268,0.21972 -0.3908934,0.35036 -0.5218802,0.41142 -0.131358,0.0606 -0.2105102,0.0638 -0.3153326,0.0346 -0.210381,-0.0588 -0.534531,-0.34564 -1.008806,-0.8015 l -0.3693202,-0.36352 -0.3653176,0.37116 0.373403,0.36754 c 0.4724192,0.45402 0.797833,0.8072 1.2289354,0.92828 a 0.97912696,0.97906522 44.550957 0 0 0.6752612,-0.0646 c 0.2208878,-0.102 0.4342194,-0.2741 0.674233,-0.51796 l 1.4612702,-1.4846 c 0.240379,-0.24422 0.408439,-0.45952 0.507204,-0.68236 a 0.97912696,0.97906522 44.550957 0 0 0.053542,-0.67656 c -0.127152,-0.42914 -0.4858098,-0.74854 -0.9472696,-1.21372 l -1.8588506,-1.8296 z" />
      </g>
    </g>
  </g>
</svg>
