<?xml version="1.0" encoding="UTF-8" standalone="no"?>
<svg
   xmlns:dc="http://purl.org/dc/elements/1.1/"
   xmlns:cc="http://creativecommons.org/ns#"
   xmlns:rdf="http://www.w3.org/1999/02/22-rdf-syntax-ns#"
   xmlns:svg="http://www.w3.org/2000/svg"
   xmlns="http://www.w3.org/2000/svg"
   xmlns:sodipodi="http://sodipodi.sourceforge.net/DTD/sodipodi-0.dtd"
   xmlns:inkscape="http://www.inkscape.org/namespaces/inkscape"
   sodipodi:docname="titlebutton-maximize-active.svg"
   inkscape:version="1.0 (4035a4fb49, 2020-05-01)"
   id="svg1663"
   version="1.1"
   viewBox="0 0 7.9375 5.2916665"
   height="20"
   width="30">
  <defs
     id="defs1657" />
  <sodipodi:namedview
     inkscape:document-rotation="0"
     inkscape:measure-end="1.02857,15.9429"
     inkscape:measure-start="1,16"
     inkscape:window-maximized="1"
     inkscape:window-y="0"
     inkscape:window-x="0"
     inkscape:window-height="1012"
     inkscape:window-width="1920"
     units="px"
     showgrid="true"
     inkscape:current-layer="g3841"
     inkscape:document-units="mm"
     inkscape:cy="7.1266656"
     inkscape:cx="11.934225"
     inkscape:zoom="30.248457"
     inkscape:pageshadow="2"
     inkscape:pageopacity="0.0"
     borderopacity="1.0"
     bordercolor="#666666"
     pagecolor="#ffffff"
     id="base">
    <inkscape:grid
       id="grid815"
       type="xygrid" />
  </sodipodi:namedview>
  <metadata
     id="metadata1660">
    <rdf:RDF>
      <cc:Work
         rdf:about="">
        <dc:format>image/svg+xml</dc:format>
        <dc:type
           rdf:resource="http://purl.org/dc/dcmitype/StillImage" />
        <dc:title></dc:title>
      </cc:Work>
    </rdf:RDF>
  </metadata>
  <g
     transform="translate(0,-292.76669)"
     id="layer1"
     inkscape:groupmode="layer"
     inkscape:label="Layer 1">
    <g
       transform="matrix(0.71264185,-0.70148238,0.70143814,0.7126868,-206.23386,86.208687)"
       id="g3837">
      <g
         id="g3841">
        <path
           style="font-weight:400;font-family:sans-serif;overflow:visible;opacity:1;fill:#505050;fill-opacity:1;stroke:#505050;stroke-width:0.095286;stroke-miterlimit:4;stroke-dasharray:none;stroke-opacity:1"
           inkscape:connector-curvature="0"
           id="path2"
           overflow="visible"
           d="m 2.5739606,295.51886 c -0.2279642,-0.21922 -0.3852457,-0.3895 -0.5914267,-0.44987 a 0.4726169,0.46026193 44.546072 0 0 -0.3213547,0.0265 c -0.104613,0.0471 -0.2051793,0.12782 -0.3180108,0.24246 l -0.34347387,0.34896 c -0.11300306,0.11481 -0.19172804,0.2163 -0.23738703,0.3218 -0.0460096,0.10553 -0.0530782,0.21913 -0.021434,0.32174 0.0634681,0.20539 0.23637713,0.35975 0.4591898,0.58424 l 0.3604773,0.35479 c 0.2279645,0.21924 0.3852446,0.38949 0.5914263,0.44987 A 0.4726169,0.46026193 44.546072 0 0 2.4735,297.69295 c 0.1044338,-0.0472 0.2049997,-0.12802 0.3178309,-0.24266 l 0.3434747,-0.34894 c 0.1130029,-0.11481 0.1917279,-0.2163 0.237387,-0.32183 a 0.4726169,0.46026193 44.546072 0 0 0.021431,-0.32174 c -0.063466,-0.20526 -0.2363761,-0.35967 -0.4591879,-0.58411 l -0.35976,-0.35409 z m -0.1706627,0.17551 0.3583286,0.35273 c 0.2229907,0.22462 0.3636105,0.37849 0.3944932,0.47828 0.015789,0.0498 0.015549,0.0881 -0.011724,0.15058 -0.027271,0.0625 -0.087084,0.14584 -0.188752,0.24914 l -0.3434741,0.34896 c -0.1016682,0.10331 -0.1840551,0.1644 -0.2460858,0.19267 -0.062216,0.028 -0.0999,0.0294 -0.1500352,0.0146 -0.1000854,-0.0292 -0.2565197,-0.16765 -0.4848416,-0.38723 l -0.3583281,-0.3527 c -0.2229915,-0.22465 -0.3641483,-0.37903 -0.39485157,-0.47865 -0.015615,-0.0498 -0.015007,-0.0875 0.012081,-0.15022 0.027272,-0.0625 0.087084,-0.14585 0.18875217,-0.24915 l 0.343474,-0.34895 c 0.1016681,-0.10331 0.1840544,-0.16443 0.2460848,-0.19269 0.062214,-0.028 0.099908,-0.029 0.1500352,-0.0146 0.1000856,0.0292 0.2565201,0.16764 0.4848413,0.3872 z" />
        <path
           style="font-weight:400;font-family:sans-serif;overflow:visible;fill:#000000;stroke:#000000;stroke-width:0.158768;stroke-miterlimit:4;stroke-dasharray:none;stroke-opacity:1"
           inkscape:connector-curvature="0"
           id="path4"
           overflow="visible"
           d="m 3.9437005,295.14769 c -0.2362174,-0.22702 -0.3989288,-0.40361 -0.6144944,-0.46414 a 0.4895796,0.48959481 44.548217 0 0 -0.3376588,0.0323 c -0.1104545,0.051 -0.2171334,0.13707 -0.3371553,0.25901 l -0.182682,0.18561 0.1855944,0.18268 0.1826819,-0.18561 c 0.1081477,-0.10988 0.1954705,-0.17519 0.2609705,-0.20574 0.065685,-0.0303 0.1052664,-0.0319 0.1576813,-0.0172 0.1046444,0.0292 0.2669073,0.17245 0.5034963,0.39983 l 0.9279704,0.91338 c 0.2309229,0.23278 0.376374,0.3924 0.4073998,0.49674 0.015881,0.0523 0.015094,0.0923 -0.014401,0.15831 -0.029493,0.066 -0.093434,0.1543 -0.2015803,0.26419 l -0.7307276,0.74245 c -0.108148,0.10987 -0.1954711,0.1752 -0.2609705,0.20573 -0.065683,0.0303 -0.1052663,0.0319 -0.1576827,0.0171 -0.1051961,-0.0293 -0.2672782,-0.17279 -0.5044238,-0.40075 l -0.1846665,-0.18176 -0.1826821,0.1856 0.186708,0.18378 c 0.2362182,0.22702 0.398929,0.40361 0.6144943,0.46415 a 0.4895796,0.48959481 44.548217 0 0 0.3376591,-0.0323 c 0.1104545,-0.051 0.2171333,-0.13707 0.3371555,-0.25901 l 0.7307275,-0.7424 c 0.120205,-0.12212 0.2042473,-0.22979 0.2536385,-0.34121 a 0.4895796,0.48959481 44.548217 0 0 0.026789,-0.33832 c -0.063572,-0.2146 -0.2429068,-0.37429 -0.4736442,-0.6069 l -0.9294567,-0.91485 z" />
        <rect
           style="opacity:0;fill-opacity:0.256436;stroke:#565151;stroke-width:0.437435;stroke-miterlimit:4;stroke-dasharray:none;stroke-opacity:1"
           id="rect849"
           width="2.9106121"
           height="2.3812575"
           x="203.07166"
           y="207.61633"
           transform="rotate(44.546057)" />
      </g>
    </g>
  </g>
</svg>
